<svg width="25" height="26" viewBox="0 0 25 26" fill="none" xmlns="http://www.w3.org/2000/svg">
<path d="M16.4062 13.397V21.7891C16.4062 22.9756 15.4761 23.9375 14.3091 23.9375H5.22461C4.05518 23.9375 3.125 22.9756 3.125 21.7891V8.89844C3.12833 8.32966 3.35575 7.78513 3.75794 7.38294C4.16013 6.98075 4.70466 6.75333 5.27344 6.75H9.86914C10.0282 6.75024 10.1856 6.78214 10.3323 6.84384C10.4789 6.90554 10.6118 6.99581 10.7231 7.10938L16.0527 12.5293C16.2795 12.7612 16.4064 13.0727 16.4062 13.397Z" stroke="#5C3218" stroke-width="2" stroke-linejoin="round"/>
<path d="M9.76562 6.75V12.0234C9.76993 12.3847 9.91536 12.73 10.1708 12.9854C10.4263 13.2409 10.7715 13.3863 11.1328 13.3906H16.4062" stroke="#5C3218" stroke-width="2" stroke-linecap="round" stroke-linejoin="round"/>
<path d="M8.59375 6.75V4.21094C8.59708 3.64216 8.8245 3.09763 9.22669 2.69544C9.62888 2.29325 10.1734 2.06583 10.7422 2.0625H15.332C15.492 2.06272 15.6503 2.09459 15.7979 2.15627C15.9454 2.21795 16.0794 2.30822 16.1919 2.42188L21.5215 7.8418C21.7481 8.0712 21.8751 8.38068 21.875 8.70312V17.1016C21.875 18.2881 20.9448 19.25 19.7778 19.25H16.7969" stroke="#5C3218" stroke-width="2" stroke-linejoin="round"/>
<path d="M15.2344 2.0625V7.33594C15.2387 7.6972 15.3841 8.04245 15.6396 8.29792C15.895 8.55339 16.2403 8.69882 16.6016 8.70312H21.875" stroke="#5C3218" stroke-width="2" stroke-linecap="round" stroke-linejoin="round"/>
</svg>
