<svg width="25" height="26" viewBox="0 0 25 26" fill="none" xmlns="http://www.w3.org/2000/svg">
<path d="M12.5 4.40625C10.8003 4.40625 9.13881 4.91026 7.72557 5.85456C6.31234 6.79885 5.21085 8.14101 4.56041 9.71131C3.90997 11.2816 3.73979 13.0095 4.07138 14.6766C4.40297 16.3436 5.22145 17.8748 6.42331 19.0767C7.62516 20.2786 9.15642 21.097 10.8234 21.4286C12.4905 21.7602 14.2184 21.59 15.7887 20.9396C17.359 20.2891 18.7012 19.1877 19.6454 17.7744C20.5897 16.3612 21.0938 14.6997 21.0938 13C21.0938 10.7208 20.1883 8.53494 18.5767 6.9233C16.9651 5.31166 14.7792 4.40625 12.5 4.40625Z" stroke="#5C3218" stroke-width="2" stroke-miterlimit="10"/>
<path d="M9.76562 10.3774C9.76562 10.3774 9.80664 9.52295 10.7212 8.78711C11.2637 8.3501 11.9141 8.22364 12.5 8.21485C13.0337 8.20801 13.5103 8.29639 13.7954 8.43213C14.2837 8.66455 15.2344 9.23194 15.2344 10.4385C15.2344 11.708 14.4043 12.2847 13.4585 12.9189C12.5127 13.5532 12.2559 14.2417 12.2559 14.9531" stroke="#5C3218" stroke-width="2" stroke-miterlimit="10" stroke-linecap="round"/>
<path d="M12.207 18.4688C12.7464 18.4688 13.1836 18.0315 13.1836 17.4922C13.1836 16.9528 12.7464 16.5156 12.207 16.5156C11.6677 16.5156 11.2305 16.9528 11.2305 17.4922C11.2305 18.0315 11.6677 18.4688 12.207 18.4688Z" fill="#5C3218"/>
</svg>
