<svg width="200" height="200" viewBox="0 0 200 200" fill="none" xmlns="http://www.w3.org/2000/svg">
<path d="M168.75 43.75V37.5C168.736 32.5316 166.756 27.7709 163.242 24.2577C159.729 20.7445 154.968 18.7644 150 18.75H25C20.0316 18.7644 15.2709 20.7445 11.7577 24.2577C8.2445 27.7709 6.26443 32.5316 6.25 37.5V137.5C6.26443 142.468 8.2445 147.229 11.7577 150.742C15.2709 154.256 20.0316 156.236 25 156.25H31.25" stroke="#5C3218" stroke-opacity="0.9" stroke-width="10" stroke-linejoin="round"/>
<path d="M175.785 50H55.4648C45.5431 50 37.5 58.0431 37.5 67.9648V163.285C37.5 173.207 45.5431 181.25 55.4648 181.25H175.785C185.707 181.25 193.75 173.207 193.75 163.285V67.9648C193.75 58.0431 185.707 50 175.785 50Z" stroke="#5C3218" stroke-opacity="0.9" stroke-width="10" stroke-linejoin="round"/>
<path d="M145.672 97.7305C152.31 97.7305 157.691 92.3876 157.691 85.7969C157.691 79.2061 152.31 73.8633 145.672 73.8633C139.034 73.8633 133.652 79.2061 133.652 85.7969C133.652 92.3876 139.034 97.7305 145.672 97.7305Z" stroke="#5C3218" stroke-opacity="0.9" stroke-width="10" stroke-miterlimit="10"/>
<path d="M133.652 145.379L99.6094 111.633C97.4331 109.483 94.5222 108.238 91.4642 108.15C88.4062 108.063 85.4287 109.138 83.1328 111.16L37.5 151.422M103.605 181.25L149.93 135.262C152.061 133.16 154.896 131.921 157.887 131.787C160.878 131.652 163.813 132.629 166.125 134.531L193.75 157.387" stroke="#5C3218" stroke-opacity="0.9" stroke-width="10" stroke-linecap="round" stroke-linejoin="round"/>
</svg>
