<svg width="50" height="50" viewBox="0 0 50 50" fill="none" xmlns="http://www.w3.org/2000/svg">
<path d="M25.2831 4.6875C13.8593 4.5332 4.53314 13.8594 4.68743 25.2832C4.83978 36.2393 13.7607 45.1602 24.7167 45.3125C36.1425 45.4687 45.4667 36.1426 45.3105 24.7187C45.1601 13.7607 36.2392 4.83984 25.2831 4.6875ZM37.6288 36.6455C37.5899 36.6876 37.5423 36.7206 37.4892 36.7421C37.4361 36.7637 37.3789 36.7734 37.3217 36.7704C37.2645 36.7674 37.2086 36.7519 37.1581 36.7249C37.1075 36.6979 37.0635 36.6601 37.0292 36.6143C36.1557 35.4714 35.086 34.493 33.87 33.7246C31.3837 32.1289 28.2333 31.25 24.9999 31.25C21.7665 31.25 18.6161 32.1289 16.1298 33.7246C14.9139 34.4926 13.8442 35.4708 12.9706 36.6133C12.9363 36.6592 12.8923 36.6969 12.8418 36.7239C12.7912 36.7509 12.7354 36.7664 12.6782 36.7694C12.6209 36.7724 12.5638 36.7628 12.5107 36.7412C12.4576 36.7196 12.4099 36.6866 12.371 36.6445C9.50548 33.5511 7.88225 29.5091 7.81243 25.293C7.65325 15.79 15.4511 7.83593 24.9579 7.8125C34.4648 7.78906 42.1874 15.5088 42.1874 25C42.1907 29.3178 40.5625 33.4774 37.6288 36.6455Z" fill="#5C3218"/>
<path d="M24.9999 14.0625C23.0741 14.0625 21.3329 14.7842 20.0956 16.0957C18.8583 17.4072 18.2401 19.2207 18.3798 21.167C18.663 25 21.6327 28.125 24.9999 28.125C28.3671 28.125 31.3309 25 31.62 21.168C31.7645 19.2402 31.1512 17.4434 29.8934 16.1074C28.6512 14.7891 26.913 14.0625 24.9999 14.0625Z" fill="#5C3218"/>
</svg>
