<svg width="35" height="35" viewBox="0 0 35 35" fill="none" xmlns="http://www.w3.org/2000/svg">
<path d="M19.6875 17.5C23.2962 17.5 26.4845 14.1019 26.7969 9.92441C26.9521 7.82578 26.2938 5.86865 24.943 4.41465C23.6065 2.97842 21.7383 2.1875 19.6875 2.1875C17.6203 2.1875 15.7507 2.97363 14.4238 4.40098C13.0819 5.84404 12.4277 7.80527 12.5781 9.92305C12.8851 14.1012 16.0727 17.5 19.6875 17.5ZM33.8639 30.0617C33.2869 26.8611 31.4856 24.1726 28.6556 22.2858C26.142 20.6104 22.9571 19.6875 19.6875 19.6875C16.4179 19.6875 13.233 20.6104 10.7194 22.2852C7.88936 24.1719 6.08809 26.8604 5.51113 30.061C5.3792 30.7945 5.5583 31.5198 6.00264 32.051C6.20417 32.293 6.45723 32.487 6.74332 32.6188C7.02941 32.7505 7.34131 32.8167 7.65625 32.8125H31.7188C32.0339 32.817 32.346 32.751 32.6323 32.6194C32.9187 32.4877 33.172 32.2938 33.3737 32.0517C33.8167 31.5205 33.9958 30.7952 33.8639 30.0617ZM7.10938 19.6875V16.9531H9.84375C10.1338 16.9531 10.412 16.8379 10.6171 16.6328C10.8223 16.4277 10.9375 16.1495 10.9375 15.8594C10.9375 15.5693 10.8223 15.2911 10.6171 15.086C10.412 14.8809 10.1338 14.7656 9.84375 14.7656H7.10938V12.0312C7.10938 11.7412 6.99414 11.463 6.78902 11.2579C6.5839 11.0527 6.30571 10.9375 6.01562 10.9375C5.72554 10.9375 5.44735 11.0527 5.24223 11.2579C5.03711 11.463 4.92188 11.7412 4.92188 12.0312V14.7656H2.1875C1.89742 14.7656 1.61922 14.8809 1.4141 15.086C1.20898 15.2911 1.09375 15.5693 1.09375 15.8594C1.09375 16.1495 1.20898 16.4277 1.4141 16.6328C1.61922 16.8379 1.89742 16.9531 2.1875 16.9531H4.92188V19.6875C4.92188 19.9776 5.03711 20.2558 5.24223 20.4609C5.44735 20.666 5.72554 20.7812 6.01562 20.7812C6.30571 20.7812 6.5839 20.666 6.78902 20.4609C6.99414 20.2558 7.10938 19.9776 7.10938 19.6875Z" fill="#5C3218"/>
</svg>
