<svg width="40" height="40" viewBox="0 0 40 40" fill="none" xmlns="http://www.w3.org/2000/svg">
<rect width="40" height="40" rx="20" fill="white"/>
<rect x="0.5" y="0.5" width="39" height="39" rx="19.5" stroke="#5C3218" stroke-opacity="0.9"/>
<path d="M22.2192 6.78008C21.993 5.76172 21.0849 5 19.9985 5C18.912 5 18.0039 5.76172 17.7777 6.78008C16.449 6.98287 15.5542 7.36162 15.5542 7.79592C15.5541 8.21568 16.3903 8.58377 17.6463 8.79096C17.6581 10.0802 18.7064 11.1218 19.9984 11.1218C21.2904 11.1218 22.3387 10.0802 22.3504 8.79096C23.6065 8.58371 24.4426 8.21568 24.4426 7.79592C24.4426 7.36174 23.5479 6.98287 22.2192 6.78008Z" fill="#5C3218"/>
<path d="M16.9321 11.8717C15.4468 11.8717 14.2559 13.0871 14.2559 14.553V22.8923C14.2574 23.5183 14.7753 24.0248 15.401 24.0248C15.4019 24.0248 15.4028 24.0248 15.4038 24.0248C16.0307 24.0232 16.5276 23.5138 16.5261 22.8869C16.5261 22.8866 16.5261 14.5467 16.5261 14.5467C16.5261 14.2231 16.9919 14.2401 16.9919 14.5467V14.7755H17.8849V11.8717H16.9321Z" fill="#5C3218"/>
<path d="M18.8916 11.8717V14.7755H21.1055V11.8717C20.5895 11.8717 20.0628 11.8717 18.8916 11.8717Z" fill="#5C3218"/>
<path d="M23.0642 11.8717H22.1113V14.7755H23.0044V14.5471C23.0044 14.2374 23.4769 14.2246 23.4735 14.553V22.8869C23.4719 23.5138 23.9655 24.0232 24.5925 24.0248C24.5934 24.0248 24.5943 24.0248 24.5953 24.0248C25.2208 24.0247 25.7423 23.5183 25.7438 22.8923V14.5529C25.7437 13.0873 24.5496 11.8717 23.0642 11.8717Z" fill="#5C3218"/>
<path d="M23.0048 15.7818H16.9922L16.9927 33.6378C16.9927 34.3901 17.6026 34.9999 18.3548 34.9999C19.1071 34.9999 19.717 34.3901 19.717 33.6378V22.7499H20.3051V33.6378C20.3051 34.3901 20.915 34.9999 21.6673 34.9999C22.4196 34.9999 23.0294 34.3901 23.0294 33.6378C23.0295 21.1393 23.0048 18.9006 23.0048 15.7818ZM20.9838 19.8604H19.0131C18.6426 19.8604 18.3422 19.56 18.3422 19.1895V17.2367C18.3422 17.1481 18.4141 17.0762 18.5027 17.0762H21.4941C21.5828 17.0762 21.6547 17.1481 21.6547 17.2367V19.1895C21.6547 19.56 21.3544 19.8604 20.9838 19.8604Z" fill="#5C3218"/>
</svg>
