<svg width="40" height="40" viewBox="0 0 40 40" fill="none" xmlns="http://www.w3.org/2000/svg">
<rect width="40" height="40" rx="20" fill="white"/>
<rect x="0.5" y="0.5" width="39" height="39" rx="19.5" stroke="#5C3218" stroke-opacity="0.9"/>
<path d="M14.6668 10.6667C16.2762 10.6667 17.5902 11.934 17.6635 13.5253L17.6668 13.6667V16.7987L21.2702 14.1307C21.4888 13.9687 21.7815 13.958 22.0095 14.0947L22.0835 14.146L25.6668 17.0133V14.6667H27.0002V18.08L28.7502 19.4793L27.9168 20.5207L27.0002 19.7867L26.9995 22.6667H28.3335C28.6755 22.6667 28.9575 22.924 28.9955 23.2553L29.0002 23.3333V28.6667C29.0002 29.0087 28.7428 29.2907 28.4115 29.3287L28.3335 29.3333H10.3335V28H15.3635L16.5302 26.6667H10.3335V25.3333H17.6668V25.368L18.8635 24H10.3335V22.6667H11.6668V13.6667C11.6668 12.01 13.0102 10.6667 14.6668 10.6667ZM22.8635 24H20.6355L17.1355 28H19.3635L22.8635 24ZM27.6668 25.1067L25.1355 28H27.6668V25.1067ZM26.8635 24H24.6355L21.1355 28H23.3635L26.8635 24ZM25.6668 18.72L21.6508 15.5073L17.6668 18.458V22.6667H19.6662L19.6668 20C19.6668 19.658 19.9242 19.376 20.2555 19.338L20.3335 19.3333H23.0002C23.3422 19.3333 23.6242 19.5907 23.6622 19.922L23.6668 20L23.6662 22.6667H25.6662L25.6668 18.72ZM14.6668 12C13.7835 12 13.0602 12.688 13.0035 13.5573L13.0002 13.6667V22.6667H16.3335V13.6667C16.3335 12.746 15.5875 12 14.6668 12ZM22.3335 20.6667H21.0002V22.6667H22.3335V20.6667Z" fill="#5C3218"/>
</svg>
